<mxfile host="app.diagrams.net" modified="2024-05-24T09:04:06.676Z" agent="Mozilla/5.0 (Windows NT 10.0; Win64; x64) AppleWebKit/537.36 (KHTML, like Gecko) Chrome/124.0.0.0 Safari/537.36" version="24.4.7" etag="KXvECpXO0lSlkI9NNh9H" type="github">
  <diagram name="Page-1" id="XVNxkLReD-mOZlmpEf3N">
    <mxGraphModel>
      <root>
        <mxCell id="0" />
        <mxCell id="1" parent="0" />
      </root>
    </mxGraphModel>
  </diagram>
</mxfile>
